<svg width="32" height="32" viewBox="0 0 32 32" fill="none" xmlns="http://www.w3.org/2000/svg">
<path d="M16 0C19.1826 0 22.2348 1.26428 24.4853 3.51472C26.7357 5.76516 28 8.8174 28 12C28 18.34 24.19 24.75 16.65 31.26L16 31.82L14.92 30.89C7.67 24.5 4 18.22 4 12C4 5.42 9.4 0 16 0ZM16 2C10.5 2 6 6.53 6 12C6 17.44 9.25 23.12 15.83 29.02L16 29.17L16.58 28.65C22.75 23 25.87 17.55 26 12.33V12C26 10.6868 25.7413 9.38642 25.2388 8.17317C24.7362 6.95991 23.9997 5.85752 23.0711 4.92893C22.1425 4.00035 21.0401 3.26375 19.8268 2.7612C18.6136 2.25866 17.3132 2 16 2ZM16 7C17.3261 7 18.5979 7.52678 19.5355 8.46447C20.4732 9.40215 21 10.6739 21 12C21 13.3261 20.4732 14.5979 19.5355 15.5355C18.5979 16.4732 17.3261 17 16 17C14.6739 17 13.4021 16.4732 12.4645 15.5355C11.5268 14.5979 11 13.3261 11 12C11 10.6739 11.5268 9.40215 12.4645 8.46447C13.4021 7.52678 14.6739 7 16 7ZM16 9C15.2044 9 14.4413 9.31607 13.8787 9.87868C13.3161 10.4413 13 11.2044 13 12C13 12.7956 13.3161 13.5587 13.8787 14.1213C14.4413 14.6839 15.2044 15 16 15C16.7956 15 17.5587 14.6839 18.1213 14.1213C18.6839 13.5587 19 12.7956 19 12C19 11.2044 18.6839 10.4413 18.1213 9.87868C17.5587 9.31607 16.7956 9 16 9Z" fill="#222222"/>
</svg>
