<svg width="32" height="32" viewBox="0 0 32 32" fill="none" xmlns="http://www.w3.org/2000/svg">
<path d="M28.9999 2V12C28.9997 12.4713 28.833 12.9274 28.5293 13.2879C28.2256 13.6483 27.8043 13.8899 27.3399 13.97L26.9999 14H25.9699L28.6999 24.18C29.2698 23.7838 29.83 23.3736 30.3799 22.95L31.6299 24.51C27.1992 28.0703 21.6838 30.0076 15.9999 30C10.4945 30.0066 5.14217 28.1885 0.779883 24.83L0.379883 24.52L1.62988 22.96C2.23988 23.46 2.87988 23.91 3.53988 24.34L7.44988 10C6.24988 10 5.13988 10.88 4.74988 12.04L3.69988 16H1.61988L2.76988 11.7C3.0447 10.6749 3.63857 9.76384 4.46555 9.09867C5.29252 8.43349 6.3097 8.0487 7.36988 8H18.0699L18.1099 7.78C18.3744 6.28598 19.1172 4.91835 20.2264 3.88309C21.3356 2.84784 22.7512 2.201 24.2599 2.04L24.5099 2.02L24.7599 2H24.9999H28.9999ZM16.9999 20V22H14.9999V20H10.8999L9.03988 26.93C11.2912 27.6417 13.6387 28.0025 15.9999 28C18.4458 28.0019 20.8763 27.6137 23.1999 26.85L21.3699 20H16.9999ZM11.9999 10H9.43988L5.31988 25.37C5.91988 25.69 6.51988 25.97 7.14988 26.24L9.35988 18H14.9999V15.87C14.1739 15.6579 13.4374 15.1875 12.8977 14.5272C12.358 13.867 12.0434 13.0516 11.9999 12.2V10ZM26.9999 4H24.8199C23.5982 4.04465 22.4353 4.5353 21.5508 5.3792C20.6664 6.22311 20.1218 7.36179 20.0199 8.58L19.9999 8.8V12C19.9992 12.8863 19.7042 13.7472 19.1612 14.4477C18.6183 15.1481 17.858 15.6484 16.9999 15.87V18H22.8999L25.0799 26.14C25.7062 25.8709 26.3201 25.574 26.9199 25.25L23.3599 12L22.2999 8H24.3699L25.4399 12H26.9999V4ZM17.9999 10H13.9999V12C13.9999 12.5304 14.2106 13.0391 14.5857 13.4142C14.9607 13.7893 15.4694 14 15.9999 14C17.0499 14 17.9999 13.1 17.9999 12V10Z" fill="#222222"/>
</svg>
