<svg width="24" height="24" viewBox="0 0 24 24" fill="none" xmlns="http://www.w3.org/2000/svg">
<path d="M20 7H11M14 17H5M14 17C14 18.6569 15.3431 20 17 20C18.6569 20 20 18.6569 20 17C20 15.3431 18.6569 14 17 14C15.3431 14 14 15.3431 14 17ZM10 7C10 8.65685 8.65685 10 7 10C5.34315 10 4 8.65685 4 7C4 5.34315 5.34315 4 7 4C8.65685 4 10 5.34315 10 7Z" stroke="url(#paint0_linear_134_160)" stroke-linecap="round" stroke-linejoin="round"/>
<defs>
<linearGradient id="paint0_linear_134_160" x1="6.22222" y1="6" x2="17.6405" y2="19.9994" gradientUnits="userSpaceOnUse">
<stop stop-color="#A787EC"/>
<stop offset="1" stop-color="#7EF186"/>
</linearGradient>
</defs>
</svg>
