<svg width="64" height="64" viewBox="0 0 64 64" fill="none" xmlns="http://www.w3.org/2000/svg">
<g clip-path="url(#clip0_196_12)">
<path d="M41.6362 8.40421L42.6532 15.6412L60.2322 20.3512C61.477 20.6847 62.545 21.486 63.2133 22.5879C63.8816 23.6898 64.0987 25.0072 63.8192 26.2652L63.7682 26.4752L57.0382 51.5892C56.7884 52.5214 56.2743 53.3615 55.5578 54.008C54.8413 54.6546 53.9531 55.0801 53.0002 55.2332V56.0002C53.0001 57.2887 52.5027 58.5274 51.6116 59.458C50.7204 60.3886 49.5045 60.9393 48.2172 60.9952L48.0002 61.0002H16.0002C14.7118 61.0001 13.4731 60.5027 12.5424 59.6115C11.6118 58.7204 11.0611 57.5045 11.0052 56.2172L11.0002 56.0002V44.0132L9.31022 44.2522C8.03419 44.4314 6.73823 44.1111 5.69265 43.358C4.64706 42.6049 3.93258 41.4773 3.69822 40.2102L3.66422 39.9962L0.0452186 14.2502C-0.13402 12.9743 0.186181 11.6785 0.939051 10.6329C1.69192 9.58737 2.81934 8.8728 4.08622 8.63821L4.30122 8.60321L35.9892 4.14921C36.6395 4.05786 37.3013 4.09548 37.937 4.25993C38.5727 4.42438 39.1698 4.71243 39.6942 5.10764C40.2186 5.50285 40.66 5.99747 40.9932 6.56327C41.3264 7.12907 41.5449 7.75396 41.6362 8.40421ZM21.1462 47.7772L21.0062 47.9082L13.0002 55.9142V56.0002C13.0002 56.7654 13.2925 57.5017 13.8175 58.0585C14.3425 58.6152 15.0603 58.9503 15.8242 58.9952L16.0002 59.0002H37.4202L25.1492 47.8122C24.6033 47.3143 23.8928 47.0354 23.1539 47.0289C22.415 47.0225 21.7008 47.2889 21.1462 47.7772ZM37.6472 37.8742L37.5082 38.0102L28.0912 47.7882L40.3872 59.0002H48.0002C48.7654 59.0002 49.5017 58.7079 50.0585 58.1829C50.6152 57.658 50.9503 56.9401 50.9952 56.1762L51.0002 56.0002V46.4392L41.7002 37.8832C41.1481 37.3752 40.4257 37.0924 39.6755 37.0908C38.9252 37.0891 38.2016 37.3686 37.6472 37.8742ZM53.0002 34.6142V53.1902C53.4759 53.0598 53.9121 52.8142 54.2704 52.4751C54.6286 52.1361 54.8978 51.714 55.0542 51.2462L55.1062 51.0722L57.5812 41.8372L53.0002 34.6142ZM48.0002 27.0002H31.9912C31.7082 27.0312 31.4202 27.0322 31.1292 27.0002H16.0002C15.235 27.0002 14.4987 27.2925 13.942 27.8175C13.3852 28.3425 13.0501 29.0603 13.0052 29.8242L13.0002 30.0002V53.0842L19.5922 46.4942C20.4721 45.6142 21.6486 45.0939 22.8917 45.0351C24.1348 44.9763 25.3551 45.3832 26.3142 46.1762L26.4962 46.3352L26.6132 46.4402L36.0682 36.6232C36.9448 35.7127 38.1337 35.168 39.3957 35.0986C40.6577 35.0292 41.8991 35.4403 42.8702 36.2492L43.0542 36.4112L51.0002 43.7212V30.0002C51.0003 29.235 50.7079 28.4987 50.1829 27.9419C49.658 27.3852 48.9401 27.0501 48.1762 27.0052L48.0002 27.0002ZM11.0002 32.5482L5.63722 39.6662L5.64422 39.7182C5.75502 40.506 6.1742 41.2175 6.80955 41.6963C7.4449 42.175 8.24441 42.3819 9.03222 42.2712L11.0002 41.9942V32.5482ZM25.1802 15.9542L25.1302 16.1232L22.7502 24.9992H28.0862C27.7404 24.3908 27.5602 23.7022 27.5638 23.0024C27.5673 22.3025 27.7544 21.6159 28.1064 21.0109C28.4583 20.406 28.9629 19.904 29.5696 19.5551C30.1762 19.2062 30.8639 19.0226 31.5637 19.0226C32.2636 19.0226 32.9512 19.2062 33.5579 19.5551C34.1646 19.904 34.6691 20.406 35.0211 21.0109C35.373 21.6159 35.5601 22.3025 35.5637 23.0024C35.5672 23.7022 35.3871 24.3908 35.0412 24.9992L48.0002 25.0012C49.2887 25.0013 50.5274 25.4987 51.458 26.3899C52.3886 27.281 52.9393 28.497 52.9952 29.7842L53.0002 30.0002V30.8802L58.2842 39.2112L61.8362 25.9582C62.0343 25.219 61.9425 24.432 61.5794 23.7584C61.2164 23.0847 60.6096 22.5752 59.8832 22.3342L59.7142 22.2842L28.8042 14.0002C28.0652 13.8024 27.2784 13.8944 26.605 14.2574C25.9315 14.6205 25.4222 15.2271 25.1812 15.9532L25.1802 15.9542ZM21.0002 31.0002C22.0611 31.0002 23.0785 31.4216 23.8286 32.1718C24.5788 32.9219 25.0002 33.9393 25.0002 35.0002C25.0002 36.0611 24.5788 37.0785 23.8286 37.8286C23.0785 38.5788 22.0611 39.0002 21.0002 39.0002C19.9394 39.0002 18.9219 38.5788 18.1718 37.8286C17.4216 37.0785 17.0002 36.0611 17.0002 35.0002C17.0002 33.9393 17.4216 32.9219 18.1718 32.1718C18.9219 31.4216 19.9394 31.0002 21.0002 31.0002ZM21.0002 33.0002C20.4698 33.0002 19.9611 33.2109 19.586 33.586C19.2109 33.9611 19.0002 34.4698 19.0002 35.0002C19.0002 35.5306 19.2109 36.0393 19.586 36.4144C19.9611 36.7895 20.4698 37.0002 21.0002 37.0002C21.5307 37.0002 22.0394 36.7895 22.4144 36.4144C22.7895 36.0393 23.0002 35.5306 23.0002 35.0002C23.0002 34.4698 22.7895 33.9611 22.4144 33.586C22.0394 33.2109 21.5307 33.0002 21.0002 33.0002ZM36.4432 6.11021L36.2682 6.12921L4.57822 10.5822C3.82048 10.6889 3.13213 11.081 2.65402 11.6785C2.1759 12.2759 1.94417 13.0335 2.00622 13.7962L2.02622 13.9712L5.24322 36.8652L11.0762 29.1252C11.2757 28.0057 11.8506 26.9876 12.7062 26.2386C13.5619 25.4897 14.6472 25.0546 15.7832 25.0052L16.0002 25.0002H20.6802L23.1992 15.6052C23.5327 14.3606 24.3339 13.2928 25.4355 12.6245C26.5372 11.9562 27.8543 11.739 29.1122 12.0182L29.3222 12.0692L40.5542 15.0792L39.6562 8.68221C39.5498 7.92447 39.1579 7.23603 38.5606 6.75774C37.9633 6.27944 37.2059 6.04844 36.4432 6.11021ZM29.6322 22.5052C29.5593 22.7777 29.5447 23.0624 29.5896 23.3409C29.6345 23.6193 29.7378 23.8852 29.8926 24.1209C30.0475 24.3566 30.2505 24.5569 30.4883 24.7086C30.726 24.8603 30.9932 24.96 31.2722 25.0012H31.8652C32.2215 24.9469 32.5565 24.7973 32.8347 24.5683C33.113 24.3393 33.3242 24.0393 33.446 23.7001C33.5678 23.3609 33.5957 22.9951 33.5268 22.6414C33.4578 22.2877 33.2946 21.9591 33.0543 21.6906C32.814 21.422 32.5056 21.2233 32.1617 21.1155C31.8178 21.0078 31.4512 20.995 31.1006 21.0784C30.75 21.1619 30.4285 21.3385 30.17 21.5897C29.9115 21.8408 29.7257 22.1572 29.6322 22.5052ZM10.0002 13.0002C11.0611 13.0002 12.0785 13.4216 12.8286 14.1718C13.5788 14.9219 14.0002 15.9393 14.0002 17.0002C14.0002 18.0611 13.5788 19.0785 12.8286 19.8286C12.0785 20.5788 11.0611 21.0002 10.0002 21.0002C8.93935 21.0002 7.92194 20.5788 7.17179 19.8286C6.42165 19.0785 6.00022 18.0611 6.00022 17.0002C6.00022 15.9393 6.42165 14.9219 7.17179 14.1718C7.92194 13.4216 8.93935 13.0002 10.0002 13.0002ZM10.0002 15.0002C9.46979 15.0002 8.96108 15.2109 8.58601 15.586C8.21093 15.9611 8.00022 16.4698 8.00022 17.0002C8.00022 17.5306 8.21093 18.0393 8.58601 18.4144C8.96108 18.7895 9.46979 19.0002 10.0002 19.0002C10.5307 19.0002 11.0394 18.7895 11.4144 18.4144C11.7895 18.0393 12.0002 17.5306 12.0002 17.0002C12.0002 16.4698 11.7895 15.9611 11.4144 15.586C11.0394 15.2109 10.5307 15.0002 10.0002 15.0002Z" fill="#222222"/>
</g>
<defs>
<clipPath id="clip0_196_12">
<rect width="64" height="64" fill="white"/>
</clipPath>
</defs>
</svg>
