<svg width="32" height="32" viewBox="0 0 32 32" fill="none" xmlns="http://www.w3.org/2000/svg">
<path d="M28.5798 2.03024C28.837 2.07929 29.08 2.18546 29.2907 2.3409C29.5015 2.49635 29.6747 2.69711 29.7975 2.9284C29.9204 3.15968 29.9897 3.41558 30.0005 3.67724C30.0113 3.9389 29.9632 4.19964 29.8598 4.44024L19.3598 28.9302C19.2019 29.3009 18.921 29.6057 18.5644 29.7932C18.2079 29.9808 17.7975 30.0395 17.4027 29.9596C17.0078 29.8797 16.6526 29.666 16.397 29.3546C16.1414 29.0432 16.0011 28.6531 15.9998 28.2502V16.0002H3.74979C3.34262 16.0045 2.94671 15.8667 2.63024 15.6104C2.31377 15.3542 2.09656 14.9956 2.01602 14.5965C1.93548 14.1973 1.99665 13.7826 2.189 13.4237C2.38134 13.0648 2.69283 12.7842 3.06979 12.6302L27.5598 2.14024C27.8798 2.00024 28.2398 1.97024 28.5798 2.04024V2.03024ZM27.7798 4.23024L4.95979 14.0002H17.9998V27.0302L27.7798 4.23024Z" fill="#222222"/>
</svg>
