<svg width="32" height="32" viewBox="0 0 32 32" fill="none" xmlns="http://www.w3.org/2000/svg">
<path d="M22 2.00007C23.7728 2.00096 25.4793 2.67448 26.7748 3.88463C28.0703 5.09478 28.8584 6.75143 28.98 8.52007L29 8.76007V16.0001C29.0004 16.4152 28.8716 16.8202 28.6315 17.1589C28.3914 17.4975 28.0519 17.7531 27.66 17.8901L27.5 17.9401L27 18.0701V25.0001C27.0292 26.3262 26.5304 27.6095 25.6133 28.5678C24.6963 29.5261 23.4361 30.0809 22.11 30.1101C20.7839 30.1392 19.5006 29.6404 18.5422 28.7234C17.5839 27.8063 17.0292 26.5462 17 25.2201V18.0001H15V25.0001C15.0292 26.3262 14.5304 27.6095 13.6133 28.5678C12.6963 29.5261 11.4361 30.0809 10.11 30.1101C8.78392 30.1392 7.50056 29.6404 6.54225 28.7234C5.58394 27.8063 5.02917 26.5462 5 25.2201V18.0601L4.5 17.9401C4.09397 17.8365 3.73074 17.6079 3.4616 17.2867C3.19245 16.9656 3.03099 16.568 3 16.1501V8.74007C3.05354 7.23107 3.59358 5.77983 4.53954 4.60292C5.48549 3.42601 6.78664 2.58653 8.24882 2.20973C9.711 1.83294 11.2558 1.93904 12.6528 2.51221C14.0497 3.08538 15.2238 4.09488 16 5.39007C16.6228 4.35547 17.5026 3.49958 18.5539 2.90556C19.6053 2.31154 20.7924 1.99961 22 2.00007ZM10 16.0001C8.96264 15.9977 7.93779 16.2266 7 16.6701V25.0001C6.97613 25.7957 7.26931 26.5683 7.81504 27.1477C8.36077 27.7272 9.11435 28.0662 9.91 28.0901C10.7056 28.1139 11.4782 27.8208 12.0577 27.275C12.6372 26.7293 12.9761 25.9757 13 25.1801V16.6701C12.0622 16.2266 11.0374 15.9977 10 16.0001ZM22 16.0001C20.9626 15.9977 19.9378 16.2266 19 16.6701V25.0001C18.9761 25.7957 19.2693 26.5683 19.815 27.1477C20.3608 27.7272 21.1144 28.0662 21.91 28.0901C22.7056 28.1139 23.4782 27.8208 24.0577 27.275C24.6372 26.7293 24.9761 25.9757 25 25.1801V16.6701C24.0623 16.2263 23.0374 15.9974 22 16.0001ZM22 12.0001C20.24 12.0001 18.53 12.4201 17 13.2001V15.5201L17.08 15.4601C18.3467 14.6341 19.8019 14.1421 21.31 14.0301L21.67 14.0101L22 14.0001C23.5959 13.9984 25.1632 14.4231 26.54 15.2301L26.83 15.4001L27 15.5201V13.2001C25.4522 12.4089 23.7383 11.9975 22 12.0001ZM10 12.0001C8.24 12.0001 6.53 12.4201 5 13.2001V15.5201L5.17 15.4001C6.41594 14.609 7.83815 14.1384 9.31 14.0301L9.65 14.0101L10 14.0001C11.66 14.0001 13.25 14.4501 14.63 15.2801L14.92 15.4601L15 15.5201V13.2001C13.4522 12.4089 11.7383 11.9975 10 12.0001ZM22 4.00007C20.7486 4.00044 19.5428 4.47004 18.6208 5.31614C17.6988 6.16224 17.1276 7.32331 17.02 8.57007L17 8.80007V11.0001C18.5841 10.3392 20.2836 9.99927 22 10.0001C23.74 10.0001 25.43 10.3401 27 11.0001V8.82007C26.9534 7.52543 26.4061 6.29943 25.4734 5.40033C24.5407 4.50123 23.2955 3.99923 22 4.00007ZM10 4.00007C8.74861 4.00044 7.54285 4.47004 6.62084 5.31614C5.69884 6.16224 5.12762 7.32331 5.02 8.57007L5 8.80007V11.0001C6.58408 10.3392 8.28358 9.99927 10 10.0001C11.74 10.0001 13.43 10.3401 15 11.0001V8.80007C14.951 7.54612 14.4322 6.35645 13.5467 5.46725C12.6612 4.57804 11.4737 4.05433 10.22 4.00007H10Z" fill="#222222"/>
</svg>
