<svg width="32" height="32" viewBox="0 0 32 32" fill="none" xmlns="http://www.w3.org/2000/svg">
<path d="M22 7.0002C23.0058 6.99935 23.9885 7.30185 24.8197 7.86819C25.6509 8.43454 26.2919 9.23839 26.6591 10.1748C27.0263 11.1111 27.1026 12.1365 26.878 13.1169C26.6533 14.0973 26.1383 14.9871 25.4 15.6702C27.0134 16.3275 28.4013 17.439 29.3953 18.8697C30.3894 20.3004 30.9468 21.9889 31 23.7302V24.0002H29C29.0004 22.3166 28.3941 20.6893 27.2921 19.4165C26.1901 18.1437 24.6663 17.3107 23 17.0702V14.8302C23.5111 14.6485 23.9633 14.3316 24.3086 13.9133C24.6539 13.495 24.8793 12.9909 24.9609 12.4547C25.0424 11.9184 24.9771 11.3701 24.7718 10.8681C24.5665 10.366 24.2289 9.929 23.795 9.60355C23.3611 9.27811 22.847 9.0764 22.3076 9.01988C21.7681 8.96337 21.2234 9.05417 20.7315 9.28261C20.2395 9.51106 19.8187 9.86861 19.5138 10.3172C19.2089 10.7658 19.0313 11.2887 19 11.8302V12.0002L19.08 12.0602C19.6493 12.506 20.1151 13.0701 20.4454 13.7134C20.7756 14.3567 20.9624 15.0639 20.9928 15.7864C21.0232 16.5089 20.8965 17.2293 20.6216 17.8981C20.3466 18.5669 19.9298 19.1681 19.4 19.6602C21.0149 20.3182 22.4039 21.4312 23.398 22.8639C24.3922 24.2965 24.9487 25.9871 25 27.7302V28.0002H23C23.0004 26.3166 22.3941 24.6893 21.2921 23.4165C20.1901 22.1437 18.6663 21.3107 17 21.0702V18.8302C17.6672 18.5943 18.2296 18.1301 18.5876 17.5197C18.9457 16.9093 19.0765 16.192 18.9568 15.4945C18.8371 14.797 18.4747 14.1642 17.9337 13.7081C17.3926 13.252 16.7077 13.0018 16 13.0018C15.2923 13.0018 14.6074 13.252 14.0663 13.7081C13.5253 14.1642 13.1629 14.797 13.0432 15.4945C12.9235 16.192 13.0543 16.9093 13.4124 17.5197C13.7704 18.1301 14.3328 18.5943 15 18.8302V21.0702C13.3738 21.3039 11.8817 22.1022 10.7847 23.3253C9.68783 24.5483 9.05605 26.1183 9 27.7602V28.0002H7C6.99862 26.2109 7.53065 24.4617 8.52813 22.9762C9.52561 21.4907 10.9433 20.3362 12.6 19.6602C12.0671 19.1699 11.6475 18.5692 11.3705 17.9001C11.0936 17.231 10.9659 16.5095 10.9963 15.7859C11.0268 15.0624 11.2147 14.3542 11.5469 13.7107C11.8792 13.0673 12.3478 12.504 12.92 12.0602L13 12.0002C12.9997 11.4503 12.8483 10.911 12.5622 10.4413C12.2762 9.97164 11.8665 9.58962 11.3781 9.33701C10.8896 9.0844 10.3411 8.97092 9.79245 9.00896C9.24384 9.04701 8.71624 9.23512 8.26731 9.55274C7.81838 9.87036 7.46539 10.3053 7.24691 10.8099C7.02844 11.3146 6.95288 11.8696 7.0285 12.4143C7.10413 12.959 7.32802 13.4725 7.67571 13.8985C8.02341 14.3246 8.48152 14.6469 9 14.8302V17.0702C7.37382 17.3039 5.88166 18.1022 4.78474 19.3253C3.68783 20.5483 3.05605 22.1183 3 23.7602V24.0002H1C0.998624 22.2109 1.53065 20.4617 2.52813 18.9762C3.52561 17.4907 4.94325 16.3362 6.6 15.6602C5.85482 14.9809 5.33342 14.0913 5.10478 13.1092C4.87614 12.1271 4.95103 11.0987 5.31954 10.16C5.68806 9.22142 6.33283 8.41678 7.16858 7.85255C8.00433 7.28833 8.99167 6.99111 10 7.0002C11.1731 7.00066 12.3087 7.4136 13.2082 8.16677C14.1076 8.91994 14.7135 9.96539 14.92 11.1202C15.6313 10.9622 16.3687 10.9622 17.08 11.1202C17.2865 9.96539 17.8924 8.91994 18.7918 8.16677C19.6913 7.4136 20.8269 7.00066 22 7.0002Z" fill="#222222"/>
</svg>
