<svg width="35" height="36" viewBox="0 0 35 36" fill="none" xmlns="http://www.w3.org/2000/svg">
<g clip-path="url(#clip0_189_49)">
<mask id="mask0_189_49" style="mask-type:luminance" maskUnits="userSpaceOnUse" x="0" y="0" width="35" height="36">
<path d="M35 0.5H0V35.5H35V0.5Z" fill="white"/>
</mask>
<g mask="url(#mask0_189_49)">
<path d="M23.625 6.25V32.531" stroke="#222222" stroke-width="2"/>
<path d="M4.625 33.249H30.625" stroke="#222222" stroke-width="2" stroke-miterlimit="10"/>
<mask id="mask1_189_49" style="mask-type:alpha" maskUnits="userSpaceOnUse" x="6" y="4" width="19" height="29">
<path d="M7.62207 32.252V6.21195C7.62207 5.68195 8.05207 5.25195 8.58207 5.25195H22.6721C23.2021 5.25195 23.6321 5.68195 23.6321 6.21195V32.252M20.6221 19.252C20.6221 19.802 20.1821 20.252 19.6221 20.252C19.0721 20.252 18.6221 19.802 18.6221 19.252C18.6221 18.702 19.0721 18.252 19.6221 18.252C20.1821 18.252 20.6221 18.702 20.6221 19.252Z" fill="#FF0000"/>
<path d="M7.62207 32.25V6.20795C7.62207 5.67995 8.05007 5.25195 8.57907 5.25195H22.6761C23.2041 5.25195 23.6321 5.67995 23.6321 6.20795V32.25" stroke="#222222" stroke-width="2" stroke-miterlimit="10"/>
<path d="M20.625 19.25C20.625 19.802 20.177 20.25 19.625 20.25C19.073 20.25 18.625 19.802 18.625 19.25C18.625 18.698 19.073 18.25 19.625 18.25C20.177 18.25 20.625 18.698 20.625 19.25Z" fill="#222222"/>
</mask>
<g mask="url(#mask1_189_49)">
<path d="M7.62207 32.25V6.20795C7.62207 5.67995 8.05007 5.25195 8.57907 5.25195H26.6251C27.1531 5.25195 27.5821 5.67995 27.5821 6.20795V32.25" stroke="#222222" stroke-width="2" stroke-miterlimit="10"/>
</g>
<path d="M7.62207 32.25V6.20795C7.62207 5.67995 8.05007 5.25195 8.57907 5.25195H22.6761C23.2041 5.25195 23.6321 5.67995 23.6321 6.20795V32.25" stroke="#222222" stroke-width="2" stroke-miterlimit="10"/>
<path d="M20.625 19.25C20.625 19.802 20.177 20.25 19.625 20.25C19.073 20.25 18.625 19.802 18.625 19.25C18.625 18.698 19.073 18.25 19.625 18.25C20.177 18.25 20.625 18.698 20.625 19.25Z" fill="#222222"/>
</g>
</g>
<defs>
<clipPath id="clip0_189_49">
<rect width="35" height="35" fill="white" transform="translate(0 0.5)"/>
</clipPath>
</defs>
</svg>
