<svg width="35" height="35" viewBox="0 0 35 35" fill="none" xmlns="http://www.w3.org/2000/svg">
<g clip-path="url(#clip0_189_86)">
<mask id="mask0_189_86" style="mask-type:luminance" maskUnits="userSpaceOnUse" x="0" y="0" width="35" height="35">
<path d="M35 0H0V35H35V0Z" fill="white"/>
</mask>
<g mask="url(#mask0_189_86)">
<path d="M4.38574 14.9478V29.4868C4.38574 30.0508 4.84274 30.5088 5.40774 30.5088H29.3667C29.9307 30.5088 30.3877 30.0508 30.3877 29.4868V14.9298C30.3877 14.6558 30.2637 14.3968 30.0507 14.2258L18.5987 5.01282C17.8627 4.42082 16.8117 4.42282 16.0777 5.01882L4.71974 14.2458C4.50874 14.4178 4.38574 14.6758 4.38574 14.9478Z" stroke="#222222" stroke-width="2" stroke-linecap="round" stroke-linejoin="round"/>
<mask id="mask1_189_86" style="mask-type:alpha" maskUnits="userSpaceOnUse" x="3" y="3" width="29" height="28">
<path d="M4.38595 14.9478L4.37695 28.6118C4.37695 29.1758 4.83395 29.6338 5.39895 29.6338H29.358C29.922 29.6338 30.379 29.1758 30.379 28.6118L30.388 14.9298C30.388 14.6558 30.264 14.3968 30.051 14.2258L18.599 5.01282C17.863 4.42082 16.812 4.42282 16.078 5.01882L4.71995 14.2458C4.50895 14.4178 4.38595 14.6758 4.38595 14.9478Z" stroke="#222222" stroke-width="2" stroke-linecap="round" stroke-linejoin="round"/>
<path d="M4.38595 14.9478L4.37695 28.6118C4.37695 29.1758 4.83395 29.6338 5.39895 29.6338H29.358C29.922 29.6338 30.379 29.1758 30.379 28.6118L30.388 14.9298C30.388 14.6558 30.264 14.3968 30.051 14.2258L18.599 5.01282C17.863 4.42082 16.812 4.42282 16.078 5.01882L4.71995 14.2458C4.50895 14.4178 4.38595 14.6758 4.38595 14.9478Z" fill="#FF0000"/>
</mask>
<g mask="url(#mask1_189_86)">
<mask id="mask2_189_86" style="mask-type:luminance" maskUnits="userSpaceOnUse" x="-23" y="-23" width="81" height="81">
<path d="M-22.625 -22.5H57.375V57.5H-22.625V-22.5Z" fill="white"/>
</mask>
<g mask="url(#mask2_189_86)">
<mask id="mask3_189_86" style="mask-type:alpha" maskUnits="userSpaceOnUse" x="16" y="17" width="15" height="17">
<path d="M25.9981 23.7212C26.6371 23.0122 27.0381 22.0832 27.0381 21.0552C27.0381 18.8492 25.2441 17.0552 23.0381 17.0552C20.8321 17.0552 19.0381 18.8492 19.0381 21.0552C19.0381 22.0832 19.4381 23.0122 20.0771 23.7212C17.6951 24.8392 16.0381 27.2542 16.0381 30.0552V32.0552H18.0381L23.2881 33.5552C23.2881 31.1392 24.6361 34.1182 26.9181 33.6562L28.6681 29.4022C28.0711 29.0562 21.0391 21.7932 21.0391 21.0532C21.0391 19.9492 21.9341 19.0542 23.0381 19.0542C24.1411 19.0542 25.0361 19.9492 25.0361 21.0532C25.0361 21.7882 24.6341 22.4242 24.0431 22.7712V25.1572C26.3201 25.6232 28.0381 27.6422 28.0381 30.0552V32.0552H30.0381V30.0552C30.0381 27.2542 28.3801 24.8392 25.9981 23.7212Z" fill="#F10000"/>
</mask>
<g mask="url(#mask3_189_86)">
<path d="M14.7759 23.7212C15.4149 23.0122 15.8159 22.0832 15.8159 21.0552C15.8159 18.8492 14.0219 17.0552 11.8159 17.0552C9.60992 17.0552 7.81592 18.8492 7.81592 21.0552C7.81592 22.0832 8.21592 23.0122 8.85492 23.7212C6.47292 24.8392 4.81592 27.2542 4.81592 30.0552V32.0552H6.81592V30.0552C6.81592 27.6392 8.53892 25.6182 10.8209 25.1562V22.7772C10.2239 22.4312 9.81692 21.7932 9.81692 21.0532C9.81692 19.9492 10.7119 19.0542 11.8159 19.0542C12.9189 19.0542 13.8139 19.9492 13.8139 21.0532C13.8139 21.7882 13.4119 22.4242 12.8209 22.7712V25.1572C15.0979 25.6232 16.8159 27.6422 16.8159 30.0552V32.0552H18.8159V30.0552C18.8159 27.2542 17.1579 24.8392 14.7759 23.7212Z" fill="#222222"/>
</g>
<path d="M25.9981 23.7212C26.6371 23.0122 27.0381 22.0832 27.0381 21.0552C27.0381 18.8492 25.2441 17.0552 23.0381 17.0552C20.8321 17.0552 19.0381 18.8492 19.0381 21.0552C19.0381 22.0832 19.4381 23.0122 20.0771 23.7212C17.6951 24.8392 16.0381 27.2542 16.0381 30.0552V32.0552H18.0381V30.0552C18.0381 27.6392 19.7611 25.6182 22.0431 25.1562V22.7772C21.4461 22.4312 21.0391 21.7932 21.0391 21.0532C21.0391 19.9492 21.9341 19.0542 23.0381 19.0542C24.1411 19.0542 25.0361 19.9492 25.0361 21.0532C25.0361 21.7882 24.6341 22.4242 24.0431 22.7712V25.1572C26.3201 25.6232 28.0381 27.6422 28.0381 30.0552V32.0552H30.0381V30.0552C30.0381 27.2542 28.3801 24.8392 25.9981 23.7212Z" fill="#222222"/>
</g>
</g>
</g>
</g>
<defs>
<clipPath id="clip0_189_86">
<rect width="35" height="35" fill="white"/>
</clipPath>
</defs>
</svg>
