<svg width="32" height="32" viewBox="0 0 32 32" fill="none" xmlns="http://www.w3.org/2000/svg">
<path d="M7.40614 1.08634L24 8.46102V2.00015H26V27L30 27.0002V29.0002L26 29V31.0002H24V29H8V31.0002H6V29L2 29.0002V27.0002L6 27V2.00015C6 1.27649 6.74485 0.792433 7.40614 1.08634ZM8 3.53815V27.0002H11V16.0001C11 14.8956 11.8954 14.0001 13 14.0001H19C20.1046 14.0001 21 14.8956 21 16.0001V27.0002H24V10.6491L8 3.53815ZM19 25H13V27H19V25ZM19 16.0001H13V23H19V16.0001ZM11 8.00015C11.5523 8.00015 12 8.44786 12 9.00015C12 9.55243 11.5523 10.0001 11 10.0001C10.4477 10.0001 10 9.55243 10 9.00015C10 8.44786 10.4477 8.00015 11 8.00015Z" fill="#222222"/>
</svg>
