<svg width="32" height="32" viewBox="0 0 32 32" fill="none" xmlns="http://www.w3.org/2000/svg">
<path d="M16.6 1.20013L16.7 1.28013L16.78 1.38013L20.48 6.00013H22V8.00013H20V12.0001H22V14.0001H20.24L21.89 28.0001H26V30.0001H6V28.0001H10.11L11.76 14.0001H10V12.0001H12V8.00013H10V6.00013H11.52L15.22 1.37013C15.383 1.16831 15.6181 1.03776 15.8756 1.00604C16.1331 0.97432 16.3929 1.04392 16.6 1.20013ZM18.23 14.0001H13.77L12.12 28.0001H19.88L18.23 14.0001ZM16 23.0001C16.2652 23.0001 16.5196 23.1055 16.7071 23.293C16.8946 23.4806 17 23.7349 17 24.0001C17 24.2653 16.8946 24.5197 16.7071 24.7072C16.5196 24.8948 16.2652 25.0001 16 25.0001C15.7348 25.0001 15.4804 24.8948 15.2929 24.7072C15.1054 24.5197 15 24.2653 15 24.0001C15 23.7349 15.1054 23.4806 15.2929 23.293C15.4804 23.1055 15.7348 23.0001 16 23.0001ZM16 18.0001C16.2652 18.0001 16.5196 18.1055 16.7071 18.293C16.8946 18.4806 17 18.7349 17 19.0001C17 19.2653 16.8946 19.5197 16.7071 19.7072C16.5196 19.8948 16.2652 20.0001 16 20.0001C15.7348 20.0001 15.4804 19.8948 15.2929 19.7072C15.1054 19.5197 15 19.2653 15 19.0001C15 18.7349 15.1054 18.4806 15.2929 18.293C15.4804 18.1055 15.7348 18.0001 16 18.0001ZM6.46 13.1201L7.88 14.5401L5.05 17.3601L3.64 15.9501L6.46 13.1201ZM25.54 13.1201L28.36 15.9501L26.95 17.3601L24.12 14.5401L25.54 13.1201ZM18 8.00013H14V12.0001H18V8.00013ZM5 9.00013V11.0001H1V9.00013H5ZM31 9.00013V11.0001H27V9.00013H31ZM5.05 2.64013L7.88 5.46013L6.46 6.88013L3.64 4.05013L5.05 2.64013ZM26.95 2.64013L28.36 4.05013L25.54 6.88013L24.12 5.46013L26.95 2.64013ZM16 3.60013L14.08 6.00013H17.92L16 3.60013Z" fill="#222222"/>
</svg>
